<?xml version="1.0" encoding="UTF-8"?>
<svg version="1.1" viewBox="0 0 2000 2000" width="500" height="500" xmlns="http://www.w3.org/2000/svg">
<path transform="translate(1023,727)" d="m0 0h26l22 2 26 6 20 7 21 10 19 12 14 11 12 11 13 13 13 17 11 18 11 23 7 21 5 24 2 21v20l-3 24-4 18-8 24-11 23-12 19-4 5h-2l1 5 15 15 14-3h11l13 4 9 7 8 7 4 4v2l4 2 35 35 8 7 40 40 7 9 4 12v10l-3 10-7 11-10 11-8 7-7 6-10 5-12 2-11-1-10-4-14-12-68-68-2-1v-2l-4-2-14-15-7-7-7-14v-18l3-9-5-5v-2l-4-2-7-8-4 1-18 12-16 9-19 8-18 6-24 5-24 2h-17l-11-1-2 5-13 19-9 12-13 18-12 16-10 14-4 1-7-4-17-14-11-9-13-11-10-8-17-14-14-11-9-8-14-11-14-12-14-11-13-11-14-11-10-9-14-11-13-11-10-8-17-14-14-11-15-13-10-8-22-18-2-2 1-7 7-11 16-25 12-19 16-25 11-17 24-38 3-2 68-9 41-5 5-4 8-12 9-10 7-8 16-15 15-11 14-9 15-8 20-8 21-6 14-3zm5 37-24 3-22 6-20 8-18 10-14 10-10 9-4 3v3l23-3 80-10 33-4h6l8 7 12 12 8 7 10 10 8 7 46 43 10 10 8 7 6 5 3 5-2 5-14 20-14 19-12 17-39 54-7 10-10 13-26 36-8 11v2l17-1 23-5 22-8 19-10 17-12 10-9 10-10 9-10 9-13 9-16 8-19 6-21 3-29-1-20-3-21-5-17-9-21-9-16-9-12-10-11-6-7-8-7-13-10-19-11-15-7-18-6-19-4-17-2z" fill="#010101"/>
<path transform="translate(829,963)" d="m0 0 2 1 6 25 7 20 11 23 7 11 10 14 12 14 9 9 7 14 7 18 6 16 10 25 6 16 9 22 1 6-4-2v-2l-4-2-13-11-14-11-13-11-16-13-17-14-11-9-12-10-11-9-13-11-11-9-13-11-10-8-13-11-10-8-11-9-13-11-14-11-14-12-10-8-11-9v-2l17-3 119-15z" fill="#96C6E2"/>
<path transform="translate(1158,921)" d="m0 0v3l-10 14-13 18-9 12-13 18-10 14-13 18-9 12-3 3-20-1-20-4-20-7-19-10-9-7 1-12 6-40 2-9 2-2 59-7 77-10 19-2z" fill="#96C6E2"/>
<path transform="translate(752,853)" d="m0 0 3 3v3l4 2v2l4 2 9 9 9 11 11 12 7 8 12 13 6 8 4 5 5 4 1 2v9l-1 2 3 1v2l-79 10-36 5-33 4h-5l6-9 9-14 14-22 16-25 26-40z" fill="#95C5E1"/>
<path transform="translate(1056,816)" d="m0 0 4 2h1 2v2l4 2v2l4 2 10 10 8 7 10 10 8 7 10 10 8 7 8 8 8 7 7 7 8 7 1 2-20 3-125 16h-7l2-6 15-32 11-24 15-32 7-16z" fill="#95C5E1"/>
<path transform="translate(1039,811)" d="m0 0h6l-5 13-16 34-12 26-11 24-7 16-4-2-11-13-13-16-9-11-11-14-28-34-4-6 16-3z" fill="#96C6E2"/>
<path transform="translate(903,953)" d="m0 0h10l3 17 7 18 8 14 11 14 10 10 13 9 7 4 1 3-6 42-6-2-19-11-16-12-10-9-10-11-12-16-10-17-8-20-5-17-2-11 9-2z" fill="#96C6E2"/>
<path transform="translate(905,836)" d="m0 0 3 2 3 5 12 15-1 6 1 2-1 1 3 1-4 4h-3l1 5 8 4-10 24-5 24-1 11-40 5-1-2-2 1v-18l4-11 24-60z" fill="#96C6E2"/>
<path transform="translate(849,835)" d="m0 0 4 1-10 21-7 21-3 12-5 30-3-1-7-9-9-10-7-8-10-11-9-11-7-7-7-8-7-7 2-2 65-8z" fill="#96C6E2"/>
<path transform="translate(984,1045)" d="m0 0 9 3 11 3 7 1h34l12-2 11-2-6 9-14 19-12 17-5 6-17-1-25-5-11-4-1-3 6-39z" fill="#96C6E2"/>
<path transform="translate(913,1098)" d="m0 0 12 7 16 9 19 9-1 15-8 53-3-3-14-36-17-43-4-9z" fill="#96C6E2"/>
<path transform="translate(940,887)" d="m0 0h5v2l3-1 11 14 12 14 10 13v2l-43 5-5-19-2-10v-7l1-4h2v-3h2v-3h2l1-2z" fill="#95C5E1"/>
<path transform="translate(986,942)" d="m0 0 1 3-7 48-2 2-15-15-11-16-5-9-3-4v-3z" fill="#96C6E2"/>
<path transform="translate(971,1128)" d="m0 0 7 1 27 6-4 6-14 19-10 14-14 19-1-2 7-48z" fill="#96C6E2"/>
<path transform="translate(943,893)" d="m0 0 1 3 5 1v6l-6-1-4-1-2-2 1-3 4 1z" fill="#010101"/>
<path transform="translate(959,916)" d="m0 0h3v2h2l-1 5-6-2-1-3z" fill="#010101"/>
</svg>
